<?xml version="1.0" standalone="no"?>
<!DOCTYPE svg PUBLIC "-//W3C//DTD SVG 20010904//EN"
 "http://www.w3.org/TR/2001/REC-SVG-20010904/DTD/svg10.dtd">
<svg version="1.0" xmlns="http://www.w3.org/2000/svg"
 width="1000.000000pt" height="1000.000000pt" viewBox="0 0 1000.000000 1000.000000"
 preserveAspectRatio="xMidYMid meet">
<metadata>
Created by potrace 1.14, written by Peter Selinger 2001-2017
</metadata>
<g transform="translate(0.000000,1000.000000) scale(0.100000,-0.100000)"
fill="#000000" stroke="none">
<path d="M0 5000 l0 -5000 5000 0 5000 0 0 5000 0 5000 -5000 0 -5000 0 0
-5000z m9208 3770 l42 -30 0 -1349 c0 -931 -3 -1352 -10 -1356 -8 -5 -8 -11 0
-20 9 -10 7 -20 -4 -38 -24 -35 -58 -47 -136 -47 -67 0 -72 2 -111 37 -53 48
-59 64 -70 206 -5 64 -15 129 -21 145 -6 15 -10 32 -9 39 2 15 -76 164 -120
228 -51 75 -115 140 -189 195 -37 28 -71 50 -75 50 -4 0 -19 9 -34 19 -39 28
-132 77 -161 86 -14 4 -32 13 -40 20 -16 13 -106 43 -210 71 -36 9 -69 20 -75
24 -5 4 -41 13 -80 20 -38 8 -74 17 -80 22 -5 4 -27 8 -50 8 -23 0 -46 5 -51
10 -6 6 -44 12 -85 15 -41 2 -130 11 -199 19 -265 31 -773 37 -2835 34 l-2030
-3 -79 -44 c-81 -46 -216 -162 -216 -187 0 -8 -4 -14 -9 -14 -5 0 -26 -35 -46
-77 -21 -43 -42 -89 -48 -102 -7 -13 -12 -71 -12 -130 1 -183 42 -289 164
-414 83 -86 156 -132 265 -167 62 -20 83 -22 180 -17 l111 6 272 -265 c150
-145 280 -264 290 -264 22 0 113 95 113 119 0 10 -37 54 -82 98 -46 44 -173
169 -283 277 -200 197 -221 216 -241 216 -6 0 -37 -26 -70 -59 -54 -53 -64
-59 -114 -64 -69 -8 -181 18 -267 62 -98 50 -220 194 -238 281 -4 19 -11 40
-16 46 -5 6 -12 45 -15 87 -10 117 22 139 93 65 140 -149 393 -388 409 -388
19 0 94 67 94 85 0 6 -52 62 -115 125 -104 104 -115 118 -115 150 0 20 6 44
13 54 16 22 85 48 93 35 3 -5 13 -9 23 -9 10 0 131 -111 270 -247 140 -137
258 -250 264 -252 7 -2 87 -79 179 -170 372 -369 488 -481 495 -481 4 0 82
-73 173 -163 91 -90 248 -244 350 -342 102 -98 259 -251 350 -340 91 -89 179
-172 195 -186 54 -44 95 -104 95 -141 0 -42 -47 -88 -92 -88 -39 0 -67 23
-238 194 -80 80 -149 146 -153 146 -5 0 -46 37 -90 83 -45 46 -89 86 -98 89
-11 4 -35 -13 -78 -56 -33 -34 -61 -66 -61 -71 0 -5 135 -144 300 -310 230
-231 300 -307 300 -326 0 -28 -29 -66 -110 -145 -82 -80 -86 -79 -243 75 -73
70 -178 172 -234 226 l-102 98 20 38 c10 21 19 47 19 58 0 11 5 23 10 26 13 8
13 75 0 75 -5 0 -10 9 -10 19 0 30 -17 34 -39 11 -62 -68 -76 -80 -92 -80 -31
0 -83 38 -102 73 -18 34 -18 36 -1 63 11 16 29 37 41 47 50 40 13 84 -60 72
-49 -8 -73 -20 -104 -48 l-22 -20 -200 194 c-111 106 -201 195 -201 196 0 1 9
20 21 42 37 72 35 191 -4 191 -6 0 -28 -18 -48 -40 -30 -32 -44 -40 -72 -40
-31 0 -41 6 -72 46 -19 26 -35 50 -35 53 0 4 18 28 40 55 44 53 48 67 25 86
-21 17 -107 8 -141 -16 -71 -50 -53 -60 -231 119 -88 89 -172 168 -185 174
-12 6 -56 14 -96 17 -78 5 -219 47 -264 78 -14 10 -32 18 -40 18 -7 0 -33 14
-57 30 -24 17 -48 30 -54 30 -5 0 -18 11 -29 25 -11 14 -24 25 -30 25 -20 0
-116 106 -172 189 -31 46 -56 87 -56 90 0 3 -14 32 -30 65 -16 32 -27 62 -24
67 3 5 1 9 -5 9 -11 0 -33 69 -25 81 2 4 0 10 -6 14 -5 3 -10 21 -10 40 0 19
-4 37 -10 40 -14 9 -7 275 9 303 7 13 15 40 17 60 7 59 10 67 73 201 9 19 28
50 44 69 15 20 26 40 24 46 -2 6 -28 12 -58 14 -38 2 -63 10 -86 28 -39 29
-198 226 -221 272 -32 66 -117 62 1315 62 l1293 0 0 50 0 49 -76 3 c-59 2 -79
7 -87 20 -8 12 -7 21 2 32 12 14 77 16 596 16 519 0 584 -2 596 -16 24 -29 -1
-49 -70 -52 -33 -2 -61 -7 -62 -12 0 -6 -1 -27 -1 -47 l-1 -38 1014 2 c810 2
1048 6 1184 18 94 8 186 20 206 26 20 6 45 8 57 5 11 -4 29 -3 39 3 10 5 67
17 126 27 59 9 110 21 113 25 3 5 19 9 36 9 30 0 86 14 118 30 9 4 31 11 50
15 19 4 51 14 70 22 19 8 44 19 55 23 100 40 188 82 232 112 23 15 45 28 49
28 14 0 155 114 192 154 20 23 52 64 71 91 41 60 122 214 119 229 0 6 4 23 10
38 6 16 16 81 21 145 11 137 17 157 63 199 66 62 160 72 226 24z m-7712 -277
c46 -30 96 -133 64 -133 -5 0 -10 -8 -10 -18 0 -10 -15 -36 -33 -58 -78 -93
-97 -151 -97 -296 0 -95 4 -120 31 -201 18 -50 39 -110 49 -132 9 -22 25 -59
35 -83 10 -23 24 -47 32 -53 7 -6 13 -18 13 -26 0 -9 17 -36 39 -62 52 -62
138 -177 151 -200 5 -11 7 -27 4 -35 -5 -14 -43 -16 -308 -16 l-302 0 -62 63
c-379 381 -412 416 -412 440 0 17 35 67 105 153 58 71 117 141 130 155 14 14
25 28 25 32 0 3 17 23 38 45 34 36 92 102 149 171 187 223 213 250 263 273 19
9 69 -1 96 -19z m2469 -1505 c3 -3 2 -14 -3 -25 -34 -65 -52 -106 -52 -116 0
-9 -47 -115 -71 -160 -5 -9 -16 -38 -25 -63 -14 -42 -14 -47 0 -63 9 -10 16
-23 16 -29 0 -12 13 -42 75 -177 64 -138 85 -185 85 -190 0 -3 -22 -5 -48 -5
l-48 0 -33 78 c-19 42 -48 111 -65 152 -81 193 -90 188 -94 -48 l-2 -182 -50
0 -50 0 0 415 0 415 50 0 50 0 0 -170 c0 -155 2 -170 18 -170 18 0 51 60 73
134 6 22 20 54 31 72 11 18 17 38 13 44 -3 5 -2 10 3 10 5 0 14 18 21 39 8 29
18 41 34 43 35 5 65 4 72 -4z m1410 -13 c25 -24 25 -24 25 -237 0 -117 -4
-219 -9 -226 -19 -31 -63 -42 -167 -42 l-104 0 0 -155 0 -155 -55 0 -55 0 0
420 0 420 170 0 c168 0 171 0 195 -25z m437 -147 l3 -173 103 -3 102 -3 0 176
0 175 50 0 50 0 0 -420 0 -420 -50 0 -50 0 0 195 0 196 -102 -3 -103 -3 0
-193 0 -192 -52 0 -53 0 0 404 c0 222 3 411 6 420 4 11 19 16 50 16 l44 0 2
-172z m738 -248 l0 -420 -50 0 -50 0 0 420 0 420 50 0 50 0 0 -420z m421 408
c5 -39 5 -94 7 -405 l2 -343 100 0 100 0 0 -40 0 -40 -155 0 -155 0 0 420 0
420 50 0 c33 0 50 -4 51 -12z m-2591 -373 l0 -376 103 3 102 3 3 373 2 373 45
-3 46 -3 0 -394 c-1 -391 -1 -393 -22 -412 -20 -17 -40 -19 -181 -19 -145 0
-160 2 -178 20 -19 19 -20 33 -20 415 l0 395 50 0 50 0 0 -375z m3900 273 c64
-31 158 -84 210 -119 103 -69 260 -220 260 -250 0 -10 4 -20 9 -24 18 -10 59
-114 81 -200 47 -189 22 -326 -80 -430 -11 -12 -20 -26 -20 -33 0 -7 -5 -12
-11 -12 -6 0 -52 -40 -102 -89 -117 -113 -172 -161 -184 -161 -6 0 -18 -9 -28
-20 -10 -11 -22 -20 -27 -20 -4 0 -17 -8 -27 -17 -39 -35 -139 -101 -183 -121
-16 -6 -28 -15 -28 -20 0 -5 -18 -17 -40 -27 -22 -10 -40 -22 -40 -27 0 -4 -7
-8 -15 -8 -7 0 -18 -6 -22 -12 -11 -17 -49 -38 -69 -38 -9 0 -23 8 -32 19 -34
37 -95 51 -230 51 -155 0 -189 -9 -357 -92 -86 -42 -112 -57 -131 -73 -6 -5
-22 -17 -34 -25 -57 -38 -130 -99 -185 -154 -67 -68 -185 -221 -185 -239 0 -7
-7 -23 -16 -35 -21 -30 -54 -129 -54 -163 0 -15 -3 -30 -8 -33 -4 -2 -4 -46
-1 -98 7 -102 22 -139 78 -196 18 -18 35 -32 38 -32 3 0 16 -9 31 -20 14 -11
45 -25 69 -31 24 -6 43 -15 43 -19 0 -11 -33 -74 -42 -81 -4 -3 -22 -34 -39
-70 -33 -69 -139 -242 -151 -247 -5 -2 -8 -10 -8 -17 0 -7 -7 -15 -15 -19 -8
-3 -15 -12 -15 -21 0 -8 -4 -15 -10 -15 -5 0 -10 -5 -10 -11 0 -18 -120 -157
-207 -240 -82 -78 -176 -152 -215 -169 -13 -6 -30 -14 -38 -19 -35 -21 -158
-61 -188 -61 -12 0 -31 -5 -41 -12 -15 -9 -28 -9 -58 0 -29 9 -81 55 -230 205
-213 213 -216 218 -163 278 16 19 74 95 128 169 54 74 130 177 170 227 40 51
72 96 72 100 0 5 10 19 23 33 38 43 167 216 167 225 0 5 7 15 15 24 34 35 205
262 205 271 0 6 7 13 15 16 8 4 15 11 15 18 0 6 15 27 33 47 17 20 37 43 42
52 53 80 250 345 304 408 17 20 31 40 31 44 0 4 32 47 70 96 39 49 73 102 76
118 6 28 4 30 -32 36 -59 9 -122 44 -144 80 -29 47 -27 125 3 152 28 26 61 43
83 43 26 0 64 -40 64 -67 0 -29 -44 -53 -62 -35 -18 18 -43 15 -62 -7 -16 -18
-16 -22 -2 -49 23 -44 54 -62 106 -62 77 0 117 17 175 76 30 30 55 61 55 68 0
8 7 16 15 20 8 3 15 12 15 19 0 8 9 22 20 32 11 10 20 24 20 32 0 7 7 13 15
13 8 0 15 4 15 9 0 6 28 48 63 94 34 47 69 95 77 107 8 13 54 73 103 135 48
62 87 115 87 118 0 4 12 19 26 34 50 54 54 60 54 67 0 7 144 204 175 239 8 9
15 20 15 23 0 3 16 25 35 48 19 24 35 47 35 52 0 5 9 15 20 22 11 7 20 18 20
25 0 6 18 32 40 56 22 25 40 48 40 53 0 4 15 17 33 29 52 33 112 22 247 -43z
m-1975 -898 c20 -19 42 -48 50 -64 30 -59 13 -146 -39 -204 -49 -55 15 -52
-1221 -52 -1111 0 -1147 1 -1183 19 -20 11 -104 84 -186 163 -114 109 -148
148 -143 161 6 16 87 17 1346 15 l1340 -3 36 -35z m-597 -497 c-10 -2 -26 -2
-35 0 -10 3 -2 5 17 5 19 0 27 -2 18 -5z m632 -1 c0 -4 -16 -6 -35 -4 -19 2
-35 6 -35 8 0 2 16 4 35 4 19 0 35 -4 35 -8z m73 -155 c8 -6 8 -7 -3 -4 -12 3
-15 21 -16 83 l0 79 3 -75 c2 -42 9 -78 16 -83z m-575 87 c4 2 5 -18 4 -45 -5
-68 -22 -62 -21 9 0 31 3 51 6 44 2 -6 8 -10 11 -8z m50 -45 l-3 -44 -5 52
c-3 29 -1 48 3 44 5 -5 7 -28 5 -52z m-101 -11 c-2 -13 -4 -3 -4 22 0 25 2 35
4 23 2 -13 2 -33 0 -45z m308 22 c-3 -5 -16 -10 -28 -9 -20 1 -20 2 3 9 14 4
26 8 28 9 2 1 0 -3 -3 -9z m-42 -40 c3 -11 1 -18 -4 -14 -5 3 -9 12 -9 20 0
20 7 17 13 -6z m-353 -7 c11 3 20 1 20 -4 0 -16 -58 -10 -64 7 -5 14 -4 15 9
4 8 -7 24 -10 35 -7z m640 -9 c0 -2 -18 -4 -41 -4 -22 0 -38 4 -35 8 5 8 76 4
76 -4z m205 -2 c-3 -3 -11 0 -18 7 -9 10 -8 11 6 5 10 -3 15 -9 12 -12z
m-1128 -1814 c183 -183 402 -405 489 -493 86 -88 242 -246 346 -352 176 -178
190 -194 184 -220 -4 -15 -16 -36 -26 -47 -16 -17 -28 -18 -141 -11 l-122 7
-71 66 c-39 36 -159 151 -266 256 -197 192 -379 368 -567 549 -57 53 -111 97
-121 97 -11 0 -32 -16 -46 -35 -15 -20 -39 -48 -53 -63 -14 -15 -39 -45 -55
-67 -16 -22 -49 -62 -74 -90 -84 -95 -214 -255 -214 -262 0 -5 -13 -19 -30
-33 -16 -14 -30 -29 -30 -34 0 -4 -15 -22 -34 -40 -18 -17 -35 -36 -37 -42 -4
-12 -217 -265 -296 -352 -24 -26 -43 -51 -43 -57 0 -5 -17 -28 -38 -51 -82
-89 -247 -286 -252 -299 -3 -8 -25 -36 -50 -62 -25 -26 -64 -73 -87 -103 -24
-30 -65 -79 -93 -108 -27 -30 -50 -60 -50 -67 0 -19 49 -75 66 -75 8 0 14 -4
14 -10 0 -5 13 -16 29 -25 43 -22 91 -76 91 -103 0 -73 -62 -84 -134 -24 -99
82 -129 102 -150 102 -24 0 -136 -121 -136 -147 0 -16 62 -74 111 -105 45 -28
98 -91 99 -117 0 -14 -7 -33 -17 -43 -17 -19 -73 -25 -73 -8 0 6 -6 10 -12 10
-7 0 -29 15 -48 33 -109 100 -158 122 -185 80 -42 -63 -88 -93 -144 -93 -39 1
-75 32 -66 58 3 12 11 22 16 22 5 0 9 5 9 10 0 11 118 172 150 205 11 12 20
25 20 31 0 5 11 23 25 39 35 41 185 245 185 251 0 2 27 40 60 83 33 43 60 83
60 89 0 5 7 12 15 16 8 3 15 11 15 18 0 7 14 27 30 45 17 18 30 35 30 39 0 4
27 43 60 86 33 44 68 93 77 109 10 16 21 29 25 29 4 0 8 5 8 10 0 6 21 39 48
73 50 66 80 108 98 139 6 10 23 32 38 48 14 16 26 32 26 35 0 3 21 35 48 70
26 35 69 96 96 134 27 39 53 71 58 71 4 0 8 6 8 13 0 8 9 22 20 32 11 10 17
21 15 25 -3 4 2 10 10 14 8 3 15 12 15 20 0 8 4 16 8 18 9 3 202 266 202 274
0 3 34 50 75 104 41 54 75 103 75 107 0 5 10 19 23 33 12 14 35 44 51 68 16
23 33 42 37 42 5 0 9 5 9 11 0 6 11 25 25 43 14 18 25 38 25 44 0 7 4 12 8 12
5 0 24 24 42 53 45 69 119 147 139 147 9 0 166 -150 348 -332z"/>
<path d="M4367 7633 c-4 -3 -7 -26 -7 -50 l0 -43 150 0 150 0 0 50 0 50 -143
0 c-79 0 -147 -3 -150 -7z"/>
<path d="M4774 7626 c-3 -8 -4 -29 -2 -48 l3 -33 143 -3 142 -3 0 51 0 50
-140 0 c-112 0 -142 -3 -146 -14z"/>
<path d="M3665 5459 c-33 -24 -71 -68 -81 -92 -4 -11 81 -101 281 -299 158
-156 294 -286 303 -289 9 -3 25 -4 34 -1 26 6 98 88 98 111 0 11 -61 79 -151
167 -83 82 -214 211 -291 287 -77 75 -145 137 -152 137 -6 0 -25 -10 -41 -21z"/>
<path d="M5127 6893 c-4 -3 -7 -78 -7 -165 l0 -158 90 0 90 0 0 165 0 165 -83
0 c-46 0 -87 -3 -90 -7z"/>
<path d="M7508 5819 c-20 -4 -75 -26 -122 -49 -48 -22 -93 -40 -101 -40 -7 0
-17 -4 -20 -10 -3 -5 -46 -30 -96 -56 -61 -32 -98 -58 -116 -83 -15 -20 -38
-48 -52 -63 -13 -15 -22 -30 -19 -33 14 -14 137 24 230 71 27 13 55 24 63 24
8 0 15 6 15 14 0 8 10 18 22 22 13 4 72 30 133 59 60 29 121 56 135 59 14 4
35 12 48 19 19 9 30 8 60 -8 20 -11 38 -28 40 -38 3 -16 -1 -18 -27 -12 -45
10 -61 -8 -61 -64 0 -41 4 -48 31 -64 30 -17 32 -16 62 5 48 32 57 48 57 98 0
39 -6 53 -37 90 -20 23 -52 49 -70 56 -36 15 -118 17 -175 3z"/>
</g>
</svg>
